<svg id="visual" viewBox="0 0 200 200" width="200" height="200" xmlns="http://www.w3.org/2000/svg" xmlns:xlink="http://www.w3.org/1999/xlink" version="1.1"><path d="M0 126L6.7 128.2C13.3 130.3 26.7 134.7 40 133C53.3 131.3 66.7 123.7 80 119.5C93.3 115.3 106.7 114.7 120 118.2C133.3 121.7 146.7 129.3 160 131.3C173.3 133.3 186.7 129.7 193.3 127.8L200 126L200 201L193.3 201C186.7 201 173.3 201 160 201C146.7 201 133.3 201 120 201C106.7 201 93.3 201 80 201C66.7 201 53.3 201 40 201C26.7 201 13.3 201 6.7 201L0 201Z" fill="#50F8CF" stroke-linecap="round" stroke-linejoin="miter"></path></svg>